<?xml version="1.0" encoding="utf-8"?>
<!-- Generator: Adobe Illustrator 19.2.0, SVG Export Plug-In . SVG Version: 6.00 Build 0)  -->
<svg version="1.1" id="Layer_1" xmlns="http://www.w3.org/2000/svg" xmlns:xlink="http://www.w3.org/1999/xlink" x="0px" y="0px"
	 viewBox="0 0 39.4 40" enable-background="new 0 0 39.4 40" xml:space="preserve">
<path fill="#C3C1BE" d="M28.9,28.8l-4.5-4.5c1.3-1.4,2.1-3.2,2.1-5.2c0-4.2-3.4-7.6-7.6-7.6c-4.2,0-7.6,3.4-7.6,7.6s3.4,7.6,7.6,7.6
	c1.6,0,3-0.5,4.2-1.3l4.6,4.6c0.2,0.2,0.4,0.2,0.6,0.2s0.4-0.1,0.6-0.2C29.3,29.7,29.3,29.2,28.9,28.8z M13,19.1
	c0-3.2,2.6-5.9,5.9-5.9c3.2,0,5.9,2.6,5.9,5.9S22.1,25,18.9,25C15.6,25,13,22.4,13,19.1z"/>
</svg>
